{
  "accessors": [
    {
      "bufferView": 2,
      "componentType": 5126,
      "count": 65532,
      "max": [
        1.0,
        1.0,
        0.2786099910736084
      ],
      "min": [
        -1.0,
        -1.0,
        0.0
      ],
      "type": "VEC3"
    },
    {
      "bufferView": 2,
      "byteOffset": 786384,
      "componentType": 5126,
      "count": 65532,
      "max": [
        0.8762882351875305,
        0.9037876129150391,
        1.0
      ],
      "min": [
        -0.8585858345031738,
        -0.8551627397537231,
        0.40920546650886536
      ],
      "type": "VEC3"
    },
    {
      "bufferView": 3,
      "componentType": 5126,
      "count": 65532,
      "max": [
        1.0,
        0.2729044258594513,
        0.865462064743042,
        1.0
      ],
      "min": [
        0.45009174942970276,
        -0.2419644445180893,
        -0.8929499983787537,
        1.0
      ],
      "type": "VEC4"
    },
    {
      "bufferView": 1,
      "componentType": 5126,
      "count": 65532,
      "max": [
        0.9906700253486633,
        0.9906700253486633
      ],
      "min": [
        0.009329999797046185,
        0.009329999797046185
      ],
      "type": "VEC2"
    },
    {
      "bufferView": 1,
      "byteOffset": 524256,
      "componentType": 5126,
      "count": 65532,
      "max": [
        0.9906700253486633,
        0.9906700253486633
      ],
      "min": [
        0.009329999797046185,
        0.009329999797046185
      ],
      "type": "VEC2"
    },
    {
      "bufferView": 0,
      "componentType": 5125,
      "count": 386658,
      "type": "SCALAR"
    },
    {
      "bufferView": 2,
      "byteOffset": 1572768,
      "componentType": 5126,
      "count": 4002,
      "max": [
        1.0,
        1.0,
        0.27553999423980713
      ],
      "min": [
        -1.0,
        0.0,
        0.0
      ],
      "type": "VEC3"
    },
    {
      "bufferView": 2,
      "byteOffset": 1620792,
      "componentType": 5126,
      "count": 4002,
      "max": [
        0.8515178561210632,
        0.7926561236381531,
        1.0
      ],
      "min": [
        -0.83965003490448,
        -0.8422239422798157,
        0.4947200119495392
      ],
      "type": "VEC3"
    },
    {
      "bufferView": 3,
      "byteOffset": 1048512,
      "componentType": 5126,
      "count": 4002,
      "max": [
        1.0,
        0.1189039796590805,
        0.8408386707305908,
        1.0
      ],
      "min": [
        0.5171211361885071,
        -0.17677825689315796,
        -0.8559119701385498,
        1.0
      ],
      "type": "VEC4"
    },
    {
      "bufferView": 1,
      "byteOffset": 1048512,
      "componentType": 5126,
      "count": 4002,
      "max": [
        0.9906700253486633,
        0.9906700253486633
      ],
      "min": [
        0.009329999797046185,
        0.5
      ],
      "type": "VEC2"
    },
    {
      "bufferView": 1,
      "byteOffset": 1080528,
      "componentType": 5126,
      "count": 4002,
      "max": [
        0.9906700253486633,
        0.9906700253486633
      ],
      "min": [
        0.009329999797046185,
        0.5
      ],
      "type": "VEC2"
    },
    {
      "bufferView": 0,
      "byteOffset": 1546632,
      "componentType": 5125,
      "count": 6558,
      "type": "SCALAR"
    },
    {
      "bufferView": 2,
      "byteOffset": 1668816,
      "componentType": 5126,
      "count": 4,
      "max": [
        0.9622899889945984,
        0.9622899889945984,
        0.0
      ],
      "min": [
        -0.9622899889945984,
        -0.9622899889945984,
        0.0
      ],
      "type": "VEC3"
    },
    {
      "bufferView": 2,
      "byteOffset": 1668864,
      "componentType": 5126,
      "count": 4,
      "max": [
        0.0,
        0.0,
        1.0
      ],
      "min": [
        0.0,
        0.0,
        1.0
      ],
      "type": "VEC3"
    },
    {
      "bufferView": 3,
      "byteOffset": 1112544,
      "componentType": 5126,
      "count": 4,
      "max": [
        1.0,
        0.0,
        0.0,
        1.0
      ],
      "min": [
        1.0,
        0.0,
        0.0,
        1.0
      ],
      "type": "VEC4"
    },
    {
      "bufferView": 1,
      "byteOffset": 1112544,
      "componentType": 5126,
      "count": 4,
      "max": [
        1.0,
        1.0
      ],
      "min": [
        0.0,
        0.0
      ],
      "type": "VEC2"
    },
    {
      "bufferView": 1,
      "byteOffset": 1112576,
      "componentType": 5126,
      "count": 4,
      "max": [
        1.0,
        1.0
      ],
      "min": [
        0.0,
        0.0
      ],
      "type": "VEC2"
    },
    {
      "bufferView": 0,
      "byteOffset": 1572864,
      "componentType": 5125,
      "count": 6,
      "type": "SCALAR"
    },
    {
      "bufferView": 2,
      "byteOffset": 1668912,
      "componentType": 5126,
      "count": 2656,
      "max": [
        1.0,
        1.0,
        0.2590399980545044
      ],
      "min": [
        -1.0,
        -1.0,
        -0.00031999999191612005
      ],
      "type": "VEC3"
    },
    {
      "bufferView": 2,
      "byteOffset": 1700784,
      "componentType": 5126,
      "count": 2656,
      "max": [
        1.0,
        1.0,
        0.0
      ],
      "min": [
        -1.0,
        -1.0,
        -1.0
      ],
      "type": "VEC3"
    },
    {
      "bufferView": 1,
      "byteOffset": 1112608,
      "componentType": 5126,
      "count": 2656,
      "max": [
        0.9779599905014038,
        0.9998999834060669
      ],
      "min": [
        9.999999747378752e-05,
        9.999999747378752e-05
      ],
      "type": "VEC2"
    },
    {
      "bufferView": 0,
      "byteOffset": 1572888,
      "componentType": 5125,
      "count": 7938,
      "type": "SCALAR"
    }
  ],
  "asset": {
    "extras": {
      "author": "mhart (https://sketchfab.com/mhart)",
      "license": "CC-BY-4.0 (http://creativecommons.org/licenses/by/4.0/)",
      "source": "https://sketchfab.com/3d-models/landscape-ab5e1ef15ed54b359013e90a95e58714",
      "title": "Landscape"
    },
    "generator": "Sketchfab-12.68.0",
    "version": "2.0"
  },
  "bufferViews": [
    {
      "buffer": 0,
      "byteLength": 1604640,
      "name": "floatBufferViews",
      "target": 34963
    },
    {
      "buffer": 0,
      "byteLength": 1133856,
      "byteOffset": 1604640,
      "byteStride": 8,
      "name": "floatBufferViews",
      "target": 34962
    },
    {
      "buffer": 0,
      "byteLength": 1732656,
      "byteOffset": 2738496,
      "byteStride": 12,
      "name": "floatBufferViews",
      "target": 34962
    },
    {
      "buffer": 0,
      "byteLength": 1112608,
      "byteOffset": 4471152,
      "byteStride": 16,
      "name": "floatBufferViews",
      "target": 34962
    }
  ],
  "buffers": [
    {
      "byteLength": 5583760,
      "uri": "scene.bin"
    }
  ],
  "images": [
    {
      "uri": "textures/border_baseColor.jpeg"
    },
    {
      "uri": "textures/water_baseColor.jpeg"
    },
    {
      "uri": "textures/water_normal.png"
    },
    {
      "uri": "textures/landscape_baseColor.png"
    },
    {
      "uri": "textures/landscape_normal.png"
    }
  ],
  "materials": [
    {
      "doubleSided": true,
      "name": "border",
      "pbrMetallicRoughness": {
        "baseColorTexture": {
          "index": 0
        },
        "metallicFactor": 0.0
      }
    },
    {
      "alphaMode": "BLEND",
      "doubleSided": true,
      "name": "water",
      "normalTexture": {
        "index": 2
      },
      "pbrMetallicRoughness": {
        "baseColorFactor": [
          1.0,
          1.0,
          1.0,
          0.05
        ],
        "baseColorTexture": {
          "index": 1
        },
        "metallicFactor": 0.49,
        "roughnessFactor": 0.12
      }
    },
    {
      "doubleSided": true,
      "name": "landscape",
      "normalTexture": {
        "index": 4,
        "texCoord": 1
      },
      "pbrMetallicRoughness": {
        "baseColorTexture": {
          "index": 3
        },
        "metallicFactor": 0.0
      }
    }
  ],
  "meshes": [
    {
      "name": "landscape_0",
      "primitives": [
        {
          "attributes": {
            "NORMAL": 1,
            "POSITION": 0,
            "TANGENT": 2,
            "TEXCOORD_0": 3,
            "TEXCOORD_1": 4
          },
          "indices": 5,
          "material": 2,
          "mode": 4
        }
      ]
    },
    {
      "name": "landscape_0",
      "primitives": [
        {
          "attributes": {
            "NORMAL": 7,
            "POSITION": 6,
            "TANGENT": 8,
            "TEXCOORD_0": 9,
            "TEXCOORD_1": 10
          },
          "indices": 11,
          "material": 2,
          "mode": 4
        }
      ]
    },
    {
      "name": "water_0",
      "primitives": [
        {
          "attributes": {
            "NORMAL": 13,
            "POSITION": 12,
            "TANGENT": 14,
            "TEXCOORD_0": 15,
            "TEXCOORD_1": 16
          },
          "indices": 17,
          "material": 1,
          "mode": 4
        }
      ]
    },
    {
      "name": "border_0",
      "primitives": [
        {
          "attributes": {
            "NORMAL": 19,
            "POSITION": 18,
            "TEXCOORD_0": 20
          },
          "indices": 21,
          "material": 0,
          "mode": 4
        }
      ]
    }
  ],
  "nodes": [
    {
      "children": [
        1
      ],
      "matrix": [
        1.0,
        0.0,
        0.0,
        0.0,
        0.0,
        2.220446049250313e-16,
        -1.0,
        0.0,
        0.0,
        1.0,
        2.220446049250313e-16,
        0.0,
        0.0,
        0.0,
        0.0,
        1.0
      ],
      "name": "Sketchfab_model"
    },
    {
      "children": [
        2,
        4,
        7,
        9
      ],
      "name": "Root"
    },
    {
      "children": [
        3
      ],
      "matrix": [
        1.0,
        0.0,
        0.0,
        0.0,
        0.0,
        1.0,
        0.0,
        0.0,
        0.0,
        0.0,
        1.0,
        0.0,
        0.0,
        6.91719,
        0.0,
        1.0
      ],
      "name": "Hemi"
    },
    {
      "name": "Hemi"
    },
    {
      "children": [
        5,
        6
      ],
      "name": "landscape"
    },
    {
      "mesh": 0,
      "name": "landscape_0"
    },
    {
      "mesh": 1,
      "name": "landscape_0"
    },
    {
      "children": [
        8
      ],
      "matrix": [
        1.0,
        0.0,
        0.0,
        0.0,
        0.0,
        1.0,
        0.0,
        0.0,
        0.0,
        0.0,
        1.0,
        0.0,
        0.0,
        0.0,
        0.02395000000000001,
        1.0
      ],
      "name": "water"
    },
    {
      "mesh": 2,
      "name": "water_0"
    },
    {
      "children": [
        10
      ],
      "name": "border"
    },
    {
      "mesh": 3,
      "name": "border_0"
    }
  ],
  "samplers": [
    {
      "magFilter": 9729,
      "minFilter": 9987,
      "wrapS": 10497,
      "wrapT": 10497
    }
  ],
  "scene": 0,
  "scenes": [
    {
      "name": "Sketchfab_Scene",
      "nodes": [
        0
      ]
    }
  ],
  "textures": [
    {
      "sampler": 0,
      "source": 0
    },
    {
      "sampler": 0,
      "source": 1
    },
    {
      "sampler": 0,
      "source": 2
    },
    {
      "sampler": 0,
      "source": 3
    },
    {
      "sampler": 0,
      "source": 4
    }
  ]
}
